<?xml version="1.0" encoding="iso-8859-1"?>
<!-- Uploaded to: SVG Repo, www.svgrepo.com, Generator: SVG Repo Mixer Tools -->
<svg fill="#000000" height="800px" width="800px" version="1.1" id="Capa_1" xmlns="http://www.w3.org/2000/svg" xmlns:xlink="http://www.w3.org/1999/xlink" 
	 viewBox="0 0 378.64 378.64" xml:space="preserve">
<path id="XMLID_1220_" d="M306.746,9.645c-9.038,9.038-11.714,22.02-8.048,33.404l-38.474,38.474
	c-21.311-10.831-45.406-16.944-70.904-16.944c-12.446,0-24.847,1.464-36.871,4.353c-0.442,0.106-0.877,0.232-1.318,0.342
	c-0.465-0.116-0.937-0.232-1.419-0.347l-0.183,0.763c-10.778,2.819-21.211,6.775-31.139,11.807L79.942,43.048
	c3.666-11.384,0.99-24.366-8.048-33.404c-12.86-12.86-33.709-12.86-46.569,0s-12.86,33.709,0,46.569
	c9.038,9.038,22.02,11.714,33.404,8.048l33.752,33.752c-37.586,29.528-60.192,75.071-60.192,123.596
	c0,12.447,1.464,24.849,4.353,36.871c3.444,14.291,8.875,28.007,16.145,40.775c13.995,24.544,34.363,44.908,58.905,58.892
	c12.764,7.269,26.477,12.699,40.767,16.143c12.013,2.887,24.415,4.351,36.861,4.351c56.305,0,108.622-30.419,136.538-79.393
	c7.266-12.76,12.696-26.477,16.142-40.776c2.887-12.013,4.351-24.415,4.351-36.862c0-50.097-23.582-94.789-60.226-123.561
	l33.786-33.787c11.384,3.666,24.366,0.99,33.404-8.048c12.86-12.86,12.86-33.709,0-46.569S319.606-3.215,306.746,9.645z
	 M229.921,172.186c6.611,15.633,9.969,32.226,9.969,49.419c0,5.798-0.385,11.577-1.145,17.181
	c-6.608,48.892-40.823,89.279-87.667,104c-5.024-1.584-9.935-3.495-14.72-5.692c26.637-24.563,44.209-57.762,49.171-93.94
	c0.976-7.077,1.471-14.327,1.471-21.549c0-0.603-0.001-1.205-0.012-1.818c-0.267-23.231-5.491-45.555-15.528-66.348
	c-2.265-4.695-4.778-9.304-7.467-13.694c-7.568-12.366-16.952-23.73-27.654-33.611c4.789-2.2,9.704-4.113,14.73-5.698
	c33.419,10.51,61.112,34.462,76.384,66.252c0.001,0.002,0.002,0.004,0.003,0.006l-0.002,0.001
	C228.325,168.51,229.141,170.343,229.921,172.186z M74.361,275.725c-2.221-4.714-4.144-9.561-5.767-14.513
	c11.982-39.359,42.083-70.18,80.714-83.222c4.934,13.456,7.52,27.593,7.683,42.181l0.002,0.118c0.008,0.444,0.007,0.879,0.007,1.315
	c0,2.246-0.077,4.492-0.195,6.734C125.084,235.214,96.263,251.85,74.361,275.725z M109.646,122.676
	c9.994,8.08,18.805,17.712,25.953,28.37c-20.293,7.519-38.922,19.198-54.636,34.396c-6.482,6.269-12.381,13.056-17.656,20.269
	C67.441,173.11,84.138,143.28,109.646,122.676z M91.122,302.209c15.535-19.291,36.314-33.581,59.629-41.189
	c-7.599,23.263-21.859,44.009-41.104,59.53C102.864,315.082,96.653,308.939,91.122,302.209z M316.351,221.609
	c0,10.088-1.185,20.132-3.518,29.842c-2.784,11.552-7.173,22.638-13.042,32.945c-19.63,34.438-54.174,57.53-92.783,62.989
	c33.079-24.735,55.719-62.053,61.467-104.575c0-0.002,0-0.004,0.001-0.005l0.003,0c0.939-6.951,1.416-14.083,1.416-21.196
	c0-22.215-4.528-43.625-13.463-63.714c-0.623-1.402-1.265-2.798-1.93-4.187c-11.113-23.133-27.551-42.904-47.619-57.91
	C268.644,104.378,316.351,157.522,316.351,221.609z"/>
</svg>